<svg xmlns="http://www.w3.org/2000/svg" viewBox="0 0 476.77 436.46"><defs><style>.cls-1{font-size:175px;font-family:YouthTouchDEMO-Regular, Youth Touch DEMO;}.cls-1,.cls-2,.cls-4{fill:#fff;}.cls-3{fill:none;}.cls-4{opacity:0;}</style></defs><g id="Layer_2" data-name="Layer 2"><g id="Findr_logo_copy" data-name="Findr logo copy"><text class="cls-1" transform="translate(177.08 368.21)">indr</text><path class="cls-2" d="M120.32,376.85l-1.93-6.19C118.18,370,98,303.43,98,154.11a41.28,41.28,0,0,1,11.26-28.59c10.43-11.06,27-16.67,42.42-16.67H306.16c9,.72,40.88,2.7,29.11,2.34l-28.95,1.66-148.59.25c-20.38,0-35.91,5.16-45.54,15.34A37.82,37.82,0,0,0,102,154.11v.12c0,122.07,13.54,188.39,18.45,208.44,3.26-10.25,10-30.93,17.52-51.42,19.36-52.51,27.38-59.24,31.4-59l71,2.22,2.28.34L170.28,256c-1.27,0-8.61,2.73-28.51,56.71-10.55,28.63-19.46,57.63-19.55,57.92Z"/><polyline class="cls-3" points="41.55 41.43 56.9 41.43 75.31 41.43"/><path class="cls-3" d="M126,0c-112,78.26-28,62.91-28,62.91l119.94-9.2"/><path class="cls-4" d="M2.53,316.5a3,3,0,0,0,.67,5.89l82.19-6.31"/></g></g></svg>