<svg xmlns="http://www.w3.org/2000/svg" viewBox="0 0 369.8 369.83"><defs><style>.cls-1{fill:#fff;}</style></defs><g id="Layer_2" data-name="Layer 2"><g id="Layer_1-2" data-name="Layer 1"><path class="cls-1" d="M185.13,0C83.7-.24,1.66,81.49,0,181.72-1.66,285.5,81.84,369,183.29,369.83c102.8.84,186.17-82.06,186.51-183.27C370.15,82.86,287.85,0,185.13,0ZM124.36,107.7a17.39,17.39,0,1,1-17.6,17.19A17.5,17.5,0,0,1,124.36,107.7ZM136.7,258.4c-8.79-.25-17.59-.19-26.39,0-2.85.05-3.62-.86-3.61-3.66q.14-48.56,0-97.09c0-3,1-3.55,3.71-3.5,9.13.14,18.27.18,27.39,0,3.1-.07,3.87.86,3.84,3.91-.15,16.09-.07,32.19-.07,48.29,0,15.77-.17,31.54.11,47.3C141.75,257.71,140.43,258.51,136.7,258.4Zm132.47-3c0,2-.46,3-2.74,3-9.3-.09-18.61-.15-27.91,0-3.54.07-3-2.11-3-4.24q0-23.91,0-47.83a50.11,50.11,0,0,0-1-11.38c-1.86-8-6.31-12.22-13.71-12.84-10.43-.88-17.39,2.69-20.42,10.53-1.82,4.72-2.19,9.67-2.18,14.68,0,15.61-.07,31.22.07,46.83,0,3.13-.65,4.37-4.08,4.27-8.63-.25-17.28-.18-25.91,0-2.73.05-3.69-.6-3.68-3.54q.17-48.59,0-97.15c0-2.93.92-3.62,3.67-3.57,8.3.16,16.61.18,24.91,0,3-.06,3.68,1.08,3.56,3.78-.18,3.88-.05,7.78-.05,12.71,12.89-17.23,29.66-19.08,47.79-14.46,14.52,3.7,22.29,14.8,23.77,32.51C270.15,210.86,268.73,233.13,269.17,255.37Z"/></g></g></svg>