<svg xmlns="http://www.w3.org/2000/svg" viewBox="0 0 572.01 811.06"><defs><style>.cls-1{fill:#ce5046;}</style></defs><g id="Layer_2" data-name="Layer 2"><g id="Layer_1-2" data-name="Layer 1"><path class="cls-1" d="M286,0C128.05,0,0,126.48,0,282.5a221.19,221.19,0,0,0,2.67,38.83C20.77,431.35,130,565.14,286,565c149.44-.14,286-123.17,286-282.5C572,126.48,444,0,286,0Zm0,457.65c-102.67,0-185.9-78.42-185.9-175.15S183.34,107.35,286,107.35s185.9,78.42,185.9,175.15S388.67,457.65,286,457.65Z"/><path class="cls-1" d="M19.71,379.09A1276.26,1276.26,0,0,0,89.64,536.57,1285.61,1285.61,0,0,0,284.53,811.06,1608,1608,0,0,0,475.4,540.93a1596.91,1596.91,0,0,0,74.35-150.32C528.59,413.23,477.26,461.86,395,484c-94.84,25.53-172,0-199.12-9.32-82.64-28.56-133-80.39-154.86-106l-13.72,7.39"/></g></g></svg>