<svg xmlns="http://www.w3.org/2000/svg" viewBox="0 0 510.66 436.46"><defs><style>.cls-1{font-size:175px;fill:#1a5d57;font-family:YouthTouchDEMO-Regular, Youth Touch DEMO;}.cls-2{fill:#191c1c;}.cls-3{fill:none;opacity:0;}</style></defs><g id="Layer_2" data-name="Layer 2"><g id="Findr_logo_copy" data-name="Findr logo copy"><text class="cls-1" transform="translate(210.97 368.21)">indr</text><path class="cls-2" d="M154.21,376.85l-1.93-6.19c-.2-.66-20.42-67.23-20.42-216.55a41.39,41.39,0,0,1,11.26-28.59c10.43-11.06,27-16.67,42.43-16.67H340.06c8.95.72,40.87,2.7,29.1,2.34l-29,1.66-148.59.25c-20.38,0-35.9,5.16-45.53,15.34a37.8,37.8,0,0,0-10.21,25.67v.12c0,122.07,13.53,188.39,18.45,208.44,3.25-10.25,10-30.93,17.52-51.42,19.35-52.51,27.38-59.24,31.39-59l71,2.22,2.28.34L204.17,256c-1.27,0-8.61,2.73-28.5,56.71-10.56,28.63-19.47,57.63-19.56,57.92Z"/><polyline class="cls-3" points="75.45 41.43 90.79 41.43 109.2 41.43"/><path class="cls-3" d="M159.84,0c-112,78.26-28,62.91-28,62.91l120-9.2"/><path class="cls-3" d="M0,313l120-9.21"/></g></g></svg>